<svg xmlns="http://www.w3.org/2000/svg" id="Layer_2" viewBox="0 0 156.12 141.76"><defs><style>.cls-1{fill:#bb181d;}</style></defs><g id="Layer_1-2"><g><path class="cls-1" d="M139.34,67.76c-1.09-.7-2.56-.42-3.3,.63-.74,1.12-.42,2.52,.63,3.3,9.38,6.32,14.71,15.52,14.71,25.14,0,8.99-4.57,17.41-12.81,23.73-.53,.42-.88,1.05-.91,1.75l-.91,13.55-14.93-6.81c-.49-.28-1.01-.28-1.51-.21-3.75,.84-7.65,1.27-11.55,1.27-15.83,0-30.26-6.82-37.7-17.77-.74-1.05-2.18-1.34-3.26-.63-1.09,.7-1.37,2.18-.63,3.3,8.28,12.22,24.22,19.8,41.6,19.8,3.97,0,7.94-.35,11.8-1.19l17.31,8c.32,.07,.67,.14,.98,.14,.42,0,.84-.07,1.22-.28,.67-.42,1.09-1.13,1.13-1.9l1.09-15.94c8.95-7.16,13.83-16.64,13.83-26.82,0-11.24-6.11-21.84-16.78-29.07Z"></path><path class="cls-1" d="M112.3,96.19c0,1.96-1.58,3.58-3.54,3.58-.49,0-.98-.07-1.44-.35-1.19-.49-2.6,0-3.13,1.19-.56,1.19-.04,2.6,1.16,3.16,1.09,.49,2.21,.7,3.41,.7,4.57,0,8.28-3.72,8.28-8.28,0-1.27-1.05-2.32-2.35-2.32s-2.39,1.05-2.39,2.32Z"></path><path class="cls-1" d="M126.1,96.19c0,4.57,3.72,8.28,8.28,8.28s8.29-3.72,8.29-8.28-3.72-8.28-8.29-8.28-8.28,3.72-8.28,8.28Zm8.28-3.51c1.97,0,3.55,1.61,3.55,3.51s-1.58,3.58-3.55,3.58-3.54-1.62-3.54-3.58,1.58-3.51,3.54-3.51Z"></path><path class="cls-1" d="M132.63,53.08C132.63,23.81,102.9,0,66.32,0S0,23.81,0,53.08c0,14.25,6.95,27.59,19.59,37.63l1.57,23.1c.07,.77,.5,1.47,1.16,1.9,.35,.21,.77,.35,1.19,.35,.35,0,.7-.14,1.01-.28l24.93-11.38c5.51,1.13,11.17,1.69,16.85,1.69,36.58,0,66.31-23.73,66.31-53.01Zm-66.31,48.31c-5.59,0-11.2-.63-16.61-1.76-.52-.14-1.05-.06-1.51,.14l-22.54,10.32-1.4-20.71c-.04-.7-.39-1.34-.91-1.76-12.01-9.2-18.61-21.48-18.61-34.54C4.74,26.4,32.37,4.7,66.32,4.7s61.61,21.7,61.61,48.38-27.67,48.31-61.61,48.31Z"></path><path class="cls-1" d="M66.32,45.14c-5.2,0-9.45,4.21-9.45,9.48s4.25,9.48,9.45,9.48,9.48-4.29,9.48-9.48-4.25-9.48-9.48-9.48Zm0,14.19c-2.6,0-4.74-2.11-4.74-4.7s2.14-4.71,4.74-4.71,4.74,2.11,4.74,4.71-2.11,4.7-4.74,4.7Z"></path><path class="cls-1" d="M35.56,45.14c-5.23,0-9.44,4.21-9.44,9.48s4.21,9.48,9.44,9.48,9.48-4.29,9.48-9.48-4.25-9.48-9.48-9.48Zm0,14.19c-2.6,0-4.74-2.11-4.74-4.7s2.14-4.71,4.74-4.71,4.75,2.11,4.75,4.71-2.14,4.7-4.75,4.7Z"></path><path class="cls-1" d="M97.07,45.14c-5.23,0-9.44,4.21-9.44,9.48s4.21,9.48,9.44,9.48,9.45-4.29,9.45-9.48-4.21-9.48-9.45-9.48Zm0,14.19c-2.6,0-4.74-2.11-4.74-4.7s2.14-4.71,4.74-4.71,4.74,2.11,4.74,4.71-2.14,4.7-4.74,4.7Z"></path></g></g></svg>