<svg xmlns="http://www.w3.org/2000/svg" id="Layer_2" viewBox="0 0 156.12 151.24"><defs><style>.cls-1{fill:#bb181d;}</style></defs><g id="Layer_1-2"><g><path class="cls-1" d="M78.08,44.94c-13.06,0-23.66,10.6-23.66,23.66,0,11.79,8.77,21.9,20.46,23.45h.32c1.16,0,2.18-.84,2.35-2.03,.18-1.33-.73-2.46-2.03-2.67-9.34-1.27-16.36-9.34-16.36-18.74,0-10.4,8.46-18.96,18.92-18.96,9.4,0,17.48,7.02,18.74,16.36,.17,1.34,1.37,2.18,2.67,2.03,1.27-.21,2.18-1.4,2-2.67-1.57-11.65-11.65-20.43-23.41-20.43Z"></path><path class="cls-1" d="M155.73,34.97c0-.07-.04-.07-.04-.07-.1-.14-.21-.28-.35-.42-.04-.07-.11-.07-.14-.14,0,0-.11-.07-.17-.14-.07,0-.14-.06-.22-.06-.03-.07-.06-.07-.1-.07L79.02,.21c-.63-.28-1.33-.28-1.93,0L1.41,34.05s-.07,.07-.14,.07c-.04,.06-.11,.06-.17,.06-.07,.07-.11,.14-.11,.14-.11,.07-.17,.14-.24,.14-.11,.14-.18,.21-.24,.35-.04,.07-.11,.07-.14,.14-.07,.14-.14,.28-.17,.42-.04,.07-.07,.14-.07,.22-.07,.14-.11,.42-.11,.56V115.07c0,.98,.56,1.83,1.41,2.18l75.69,33.84h.14c.25,.07,.53,.14,.81,.14h.04c.28,0,.56-.07,.84-.14h.1l75.69-33.84c.88-.35,1.4-1.19,1.4-2.18V36.16c0-.42-.14-.84-.39-1.19ZM78.04,4.98l29.94,13.34-11.52,5.2c-1.19,.49-1.72,1.9-1.19,3.09,.42,.84,1.27,1.4,2.18,1.4,.32,0,.63-.07,.95-.21l15.37-6.88,34.16,15.23-35.8,16c-6.11-12.63-19.06-21.41-34.05-21.41s-27.95,8.78-34.09,21.41L8.18,36.16,78.04,4.98Zm3.82,67.4l45.32,15.59-19.76,8.78c-.53,.21-.98,.63-1.19,1.19l-8.81,19.8-15.55-45.36Zm28.19,4.7l-31.21-10.74c-.88-.28-1.83-.07-2.46,.56-.63,.63-.84,1.62-.56,2.46l10.71,31.17c-2.7,.77-5.54,1.19-8.46,1.19-18.25,0-33.14-14.88-33.14-33.14s14.89-33.14,33.14-33.14,33.1,14.89,33.1,33.14c0,2.95-.42,5.75-1.12,8.49Zm-67.48,53.36v-36.02c0-1.33-1.05-2.39-2.35-2.39s-2.39,1.06-2.39,2.39v33.91L4.74,113.53V39.88l35.46,15.8,2,.91c-1.26,3.79-1.96,7.79-1.96,12.01,0,20.08,15.7,36.51,35.46,37.7v38.97l-33.11-14.82Zm108.79-16.92l-70.95,31.74v-38.97c2.63-.14,5.19-.56,7.65-1.27l6.81,19.87c.32,.98,1.16,1.61,2.14,1.61h.11c.91,0,1.79-.49,2.18-1.33l10.84-24.51,24.47-10.88c.88-.35,1.44-1.27,1.37-2.25-.04-.98-.67-1.83-1.58-2.11l-19.9-6.88c.88-3.16,1.4-6.53,1.4-9.96,0-4.21-.73-8.22-2-12.01l37.46-16.72V113.53Z"></path></g></g></svg>