<svg xmlns="http://www.w3.org/2000/svg" id="Layer_2" viewBox="0 0 154.15 156.15"><defs><style>.cls-1{fill:#bb181d;}</style></defs><g id="Layer_1-2"><g><path class="cls-1" d="M112.09,26.82q-.03-.14-.06-.28c-.11-.22-.25-.5-.46-.63L86.39,.7c-.21-.21-.45-.28-.7-.42-.07-.07-.14-.07-.22-.07-.17-.06-.38-.14-.6-.14-.07,0-.1-.07-.14-.07H2.35C1.05,0,0,1.12,0,2.39V153.77c0,1.33,1.05,2.39,2.35,2.39H109.88c1.33,0,2.35-1.06,2.35-2.39V27.39c-.04-.22-.07-.42-.14-.56Zm-24.99-18.75l8.53,8.57,8.53,8.56h-17.06V8.07ZM4.7,151.38V4.77H82.36V27.52c0,1.34,1.05,2.39,2.39,2.39h22.78v121.47H4.7Z"></path><path class="cls-1" d="M152.5,1.97c-8.29-2.6-17.03-2.6-25.31,0-.98,.35-1.65,1.26-1.65,2.24v127.5c0,.07,.03,.14,.03,.22,.04,.28,.11,.49,.25,.77h0l11.93,22.19c.42,.78,1.19,1.27,2.07,1.27s1.68-.49,2.07-1.27l11.97-22.19h0c.14-.28,.21-.49,.24-.77v-.22s.04-.06,.04-.14V22.82h-.04c0-.07,.04-.07,.04-.07h0V4.21c0-.98-.67-1.9-1.65-2.24Zm-22.22,126.52V24.65c.17-.07,.38-.14,.6-.21,.35-.07,.73-.14,1.09-.22,.52-.14,1.02-.21,1.55-.35,.39-.06,.73-.14,1.09-.14,.56-.07,1.13-.14,1.65-.21,.32-.07,.67-.07,.98-.14h.24V127.44c-2.42,.14-4.85,.49-7.2,1.05Zm11.93-105.11c.07,0,.17,0,.24,.07,.32,0,.63,0,.95,.07,.56,.06,1.12,.14,1.68,.21,.35,0,.7,.07,1.06,.14,.52,.14,1.05,.22,1.57,.35l1.06,.22c.21,.06,.42,.14,.63,.21v103.84c-2.39-.56-4.77-.91-7.2-1.05V23.38Zm-11.93-17.34c6.28-1.68,12.85-1.68,19.13,0v13.69h-.04s-.04-.06-.07-.06c-.91-.22-1.86-.35-2.78-.57-.28,0-.56,0-.84-.06-.7-.14-1.44-.22-2.14-.28-.28,0-.52-.07-.81-.07-.98,0-1.93-.07-2.91-.07s-1.93,.07-2.88,.07c-.28,0-.52,.07-.81,.07-.7,.06-1.44,.14-2.18,.28-.24,.06-.52,.06-.81,.06-.95,.22-1.86,.35-2.8,.57l-.04,.06h-.04V6.04Zm9.55,142.74l-8.43-15.73c2.78-.63,5.58-.91,8.39-.91h.07c2.84,0,5.65,.28,8.43,.91l-8.46,15.73Z"></path><path class="cls-1" d="M96.33,61.58c0-5.2-4.25-9.41-9.48-9.41-4.39,0-8.04,3.02-9.13,7.09h-12.14v-2.39c0-2.6-2.11-4.7-4.74-4.7h-2.36v-11.86h10.64c1.3,0,2.35-1.06,2.35-2.32v-14.25c0-1.27-1.05-2.39-2.35-2.39h-26.01c-1.3,0-2.39,1.12-2.39,2.39v14.25c0,1.27,1.09,2.32,2.39,2.32h10.63v11.86h-2.35c-2.63,0-4.74,2.11-4.74,4.7v2.39h-12.18c-1.06-4.07-4.71-7.09-9.13-7.09-5.2,0-9.44,4.21-9.44,9.41,0,4.42,3.01,8.07,7.09,9.2v12.14h-4.74c-1.3,0-2.35,1.06-2.35,2.32v14.18c0,1.34,1.05,2.39,2.35,2.39h4.74v14.19h-2.35c-2.6,0-4.74,2.18-4.74,4.77v9.41c0,2.67,2.14,4.77,4.74,4.77h9.44c2.63,0,4.74-2.11,4.74-4.77v-2.32h12.19c1.05,4.08,4.7,7.1,9.12,7.1,5.2,0,9.45-4.21,9.45-9.48s-4.25-9.48-9.45-9.48c-4.42,0-8.07,3.02-9.12,7.16h-12.19v-2.39c0-2.6-2.11-4.77-4.74-4.77h-2.35v-14.19h16.57c1.29,0,2.35-1.05,2.35-2.39v-14.18c0-1.27-1.06-2.32-2.35-2.32H27.73v-12.14c3.3-.91,5.9-3.51,6.74-6.81h12.18v2.39c0,2.6,2.11,4.7,4.74,4.7h9.45c2.63,0,4.74-2.11,4.74-4.7v-2.39h12.14c.88,3.3,3.48,5.9,6.78,6.81v12.14h-16.54c-1.34,0-2.39,1.06-2.39,2.32v14.18c0,1.34,1.05,2.39,2.39,2.39h16.54v14.19h-2.36c-2.6,0-4.74,2.18-4.74,4.77v9.41c0,2.67,2.14,4.77,4.74,4.77h9.45c2.63,0,4.74-2.11,4.74-4.77v-9.41c0-2.6-2.11-4.77-4.74-4.77h-2.35v-14.19h4.74c1.3,0,2.35-1.05,2.35-2.39v-14.18c0-1.27-1.05-2.32-2.35-2.32h-4.74v-12.14c4.07-1.12,7.09-4.77,7.09-9.2ZM45.46,26.12h21.31v9.48h-21.31v-9.48Zm10.67,94.64c2.6,0,4.71,2.11,4.71,4.7s-2.11,4.71-4.71,4.71-4.74-2.11-4.74-4.71,2.11-4.7,4.74-4.7Zm-26.05,4.7h0v4.71h-9.44v-9.41h9.44v4.7Zm11.83-28.36H20.64v-9.48h21.27v9.48Zm-16.57-30.75c-2.6,0-4.7-2.11-4.7-4.77s2.11-4.71,4.7-4.71,4.74,2.11,4.74,4.71-2.11,4.77-4.74,4.77Zm26.05,0v-9.48h9.45v4.71h0v4.77h-9.45Zm40.2,63.82h-9.45v-9.41h9.45v9.41Zm0-33.07h-21.27v-9.48h21.27v9.48Zm-9.45-35.52c0-2.6,2.11-4.71,4.71-4.71s4.74,2.11,4.74,4.71-2.11,4.77-4.74,4.77-4.71-2.11-4.71-4.77Z"></path></g></g></svg>