<svg xmlns="http://www.w3.org/2000/svg" id="Layer_2" viewBox="0 0 156.12 155.87"><defs><style>.cls-1{fill:#bb181d;}</style></defs><g id="Layer_1-2"><g><path class="cls-1" d="M153.16,115.64c-1.75-1.47-3.82-1.61-6.56-.91,.11-.49,.22-1.05,.22-1.61,.03-1.55-.53-3.86-3.16-5.9-2.49-1.89-6.04-1.05-11.3,1.06v-15.87h4.53c1.29,0,2.35-1.12,2.35-2.39v-19.17c-.04-.21-.07-.42-.14-.63-.04-.07-.06-.14-.06-.21-.14-.22-.25-.42-.42-.63,0,0-.04-.07-.07-.07h0l-21.66-21.2c-.35-.35-.81-.5-1.27-.63v-11.93h2.11c1.29,0,2.35-.98,2.35-2.32v-14.67q0-.06-.04-.14c0-.21-.04-.49-.11-.7-.04,0-.04-.07-.06-.14-.07-.22-.22-.42-.35-.56L105.46,.85c-.46-.5-1.13-.85-1.79-.85H61.12c-.67,0-1.34,.35-1.79,.85l-14.05,16.15c-.14,.14-.28,.35-.35,.56-.04,.06-.04,.14-.04,.14-.11,.22-.14,.5-.18,.7v14.81c0,1.34,1.06,2.32,2.35,2.32h2.11v11.93c-.49,.14-.91,.28-1.26,.63l-21.66,21.2h0s-.04,.07-.04,.07c-.21,.21-.35,.42-.42,.63-.04,.06-.07,.14-.11,.21-.07,.21-.11,.42-.11,.63q-.04,.07-.04,.14v19.03c0,1.27,1.06,2.39,2.35,2.39h4.53v9.12c-3.12-.06-6.46-.14-10.18-.14H2.39c-1.34,0-2.39,1.05-2.39,2.39v42.55c0,1.33,1.05,2.39,2.39,2.39H21.87c3.02,.98,23.17,7.16,49.29,7.16,24.33,0,53.79-5.41,79.2-25.56,.56-.42,5.54-3.93,5.76-8.63,.06-1.61-.39-3.93-2.95-6.04ZM19.9,143.94H4.74v-37.77h15.16v37.77Zm120.87-33c1.19,.98,1.29,1.68,1.29,2.18,0,1.33-1.4,3.08-2.6,4.21-.52,.21-1.05,.49-1.62,.7-1.65,.7-3.47,1.47-5.51,2.32v-6.95c3.72-1.55,7.51-2.95,8.43-2.46ZM62.21,4.77h40.37l9.94,11.37H52.27l9.94-11.37Zm-12.74,16.08H115.32v9.96H49.46v-9.96Zm61.4,14.67v18.82H53.92v-18.82h56.94Zm-61.69,17.97v3.23c0,1.27,1.06,2.32,2.36,2.32h61.72c1.29,0,2.35-1.05,2.35-2.32v-3.23l15.48,15.09H33.7l15.48-15.09Zm-18.92,34.12v-14.26h104.26v14.26H30.26Zm6.88,4.77H127.65v29.77c-4.95,1.82-10.81,3.79-17.84,5.54,.28-.77,.42-1.55,.46-2.25,.24-4.28-.78-7.65-3.09-9.96-3.3-3.3-7.94-3.02-8.04-3.02-21.77,.35-25.42-1.83-29.7-4.36-4.53-2.67-9.55-5.62-32.3-6.46v-9.27Zm110.4,34.12c-48.37,38.34-112.09,21.35-122.91,18.12v-38.48c32.3,.14,37.67,3.3,42.41,6.11,4.88,2.8,9.12,5.33,32.3,4.91,0,0,2.7-.07,4.46,1.69,1.34,1.33,1.9,3.44,1.72,6.31-.04,.7-.17,2.81-4.31,4.49,0,0-.07,0-.11,.07h-.07c-4.42,1.69-14.18,3.16-35.49,.42-1.3-.14-2.49,.7-2.67,2.03-.18,1.27,.73,2.46,2.03,2.6,8.15,1.13,15.2,1.62,21.13,1.62,7.06,0,12.6-.77,16.54-2.25,17.49-3.44,29.31-8.49,37.11-11.79,4.88-2.03,9.45-4,10.46-3.16,1.16,.98,1.27,1.75,1.27,2.25-.1,1.96-2.8,4.29-3.86,5.05Z"></path><path class="cls-1" d="M12.32,116.7c1.5,0,2.73-1.27,2.73-2.81s-1.23-2.67-2.73-2.67-2.74,1.19-2.74,2.67,1.23,2.81,2.74,2.81Z"></path></g></g></svg>