<svg xmlns="http://www.w3.org/2000/svg" id="Layer_2" viewBox="0 0 156.12 156.11"><defs><style>.cls-1{fill:#bb181d;}</style></defs><g id="Layer_1-2"><g><path class="cls-1" d="M2.35,4.7H153.73c1.33,0,2.39-1.06,2.39-2.39s-1.06-2.32-2.39-2.32H2.35C1.05,0,0,1.05,0,2.32c0,1.33,1.05,2.39,2.35,2.39Z"></path><path class="cls-1" d="M153.73,113.53H2.35c-1.3,0-2.35,1.05-2.35,2.39,0,1.26,1.05,2.32,2.35,2.32H75.69v12.42l-21.41,21.42c-.91,.91-.91,2.39,0,3.3,.91,.98,2.42,.98,3.33,0l18.08-18.05v16.43c0,1.27,1.06,2.32,2.35,2.32s2.39-1.06,2.39-2.32v-16.43l18.05,18.05c.49,.49,1.09,.7,1.68,.7s1.23-.22,1.69-.7c.91-.91,.91-2.39,0-3.3l-21.42-21.42v-12.42h73.31c1.33,0,2.39-1.06,2.39-2.32,0-1.34-1.06-2.39-2.39-2.39Z"></path><path class="cls-1" d="M9.44,11.79c-1.29,0-2.35,1.06-2.35,2.39V104.05c0,1.34,1.06,2.39,2.35,2.39H146.63c1.34,0,2.39-1.05,2.39-2.39V14.18c0-1.33-1.05-2.39-2.39-2.39H9.44ZM144.28,101.66H11.83V16.57H144.28V101.66Z"></path><path class="cls-1" d="M20.89,93.8c.6,0,1.23-.22,1.68-.7l17.24-17.77c1.4,.84,3.02,1.4,4.77,1.4,2.6,0,4.95-1.19,6.56-2.95l3.19,2.18c-.17,.7-.28,1.4-.28,2.11,0,4.92,3.97,8.92,8.85,8.92s8.88-4,8.88-8.92c0-1.83-.6-3.58-1.55-4.98l10.99-13.9c1.19,.56,2.52,.98,3.96,.98,3.2,0,5.97-1.75,7.55-4.29l9.23,3.58c.14,4.77,4.04,8.57,8.85,8.57s8.88-4,8.88-8.85c0-1.96-.7-3.79-1.79-5.26l16.89-25.07c.73-1.05,.45-2.52-.63-3.23-1.09-.7-2.57-.42-3.3,.63l-16.64,24.71c-1.05-.42-2.21-.7-3.4-.7-3.3,0-6.18,1.89-7.69,4.57l-9.09-3.52h0c0-4.91-3.97-8.92-8.85-8.92s-8.88,4-8.88,8.92c0,1.69,.52,3.3,1.4,4.71l-11.13,14.04c-1.12-.56-2.35-.84-3.68-.84-2.42,0-4.64,.98-6.25,2.6l-3.37-2.32c.11-.57,.17-1.13,.17-1.69,0-4.85-4-8.84-8.88-8.84s-8.85,4-8.85,8.84c0,1.41,.35,2.74,.95,3.93l-17.51,18.05c-.88,.91-.88,2.46,.07,3.37,.45,.42,1.05,.63,1.65,.63ZM110.83,55.04c2.28,0,4.14,1.83,4.14,4.14s-1.86,4.14-4.14,4.14-4.14-1.89-4.14-4.14,1.85-4.14,4.14-4.14Zm-25.63-7.94c2.29,0,4.15,1.9,4.15,4.21s-1.86,4.08-4.15,4.08-4.14-1.83-4.14-4.08,1.86-4.21,4.14-4.21Zm-22.29,26.82c2.28,0,4.14,1.9,4.14,4.14s-1.86,4.14-4.14,4.14-4.14-1.83-4.14-4.14,1.85-4.14,4.14-4.14Zm-18.33-10.25c2.28,0,4.14,1.9,4.14,4.14s-1.86,4.14-4.14,4.14-4.14-1.83-4.14-4.14,1.86-4.14,4.14-4.14Z"></path><path class="cls-1" d="M21.27,52.02H57.75c1.3,0,2.35-1.06,2.35-2.39v-9.41h8.15c1.3,0,2.35-1.12,2.35-2.39v-11.86c0-1.34-1.05-2.32-2.35-2.32H21.27c-1.3,0-2.35,.98-2.35,2.32v23.66c0,1.33,1.05,2.39,2.35,2.39Zm34.12-4.77H23.66v-7.02h31.74v7.02ZM23.66,28.36h42.2v7.09H23.66v-7.09Z"></path></g></g></svg>